<?xml version="1.0" encoding="UTF-8" standalone="no"?>
<!-- Created with Inkscape (http://www.inkscape.org/) -->

<svg
   xmlns:dc="http://purl.org/dc/elements/1.1/"
   xmlns:cc="http://creativecommons.org/ns#"
   xmlns:rdf="http://www.w3.org/1999/02/22-rdf-syntax-ns#"
   xmlns:svg="http://www.w3.org/2000/svg"
   xmlns="http://www.w3.org/2000/svg"
   xmlns:sodipodi="http://sodipodi.sourceforge.net/DTD/sodipodi-0.dtd"
   xmlns:inkscape="http://www.inkscape.org/namespaces/inkscape"
   width="12"
   height="12"
   id="svg4764"
   version="1.1"
   inkscape:version="0.48.2 r9819"
   sodipodi:docname="mobile-phone-12.svg.2013_07_26_16_27_10.1.svg">
  <defs
     id="defs4766" />
  <sodipodi:namedview
     id="base"
     pagecolor="#ffffff"
     bordercolor="#666666"
     borderopacity="1.0"
     inkscape:pageopacity="0.0"
     inkscape:pageshadow="2"
     inkscape:zoom="52.628571"
     inkscape:cx="8.6593404"
     inkscape:cy="6.2843774"
     inkscape:document-units="px"
     inkscape:current-layer="g3064"
     showgrid="true"
     showguides="true"
     inkscape:guide-bbox="true"
     inkscape:window-width="1920"
     inkscape:window-height="1032"
     inkscape:window-x="0"
     inkscape:window-y="22"
     inkscape:window-maximized="1"
     inkscape:snap-global="true">
    <inkscape:grid
       type="xygrid"
       id="grid4772"
       empspacing="2"
       visible="true"
       enabled="true"
       snapvisiblegridlinesonly="true"
       spacingx="0.5px"
       spacingy="0.5px" />
    <sodipodi:guide
       orientation="0,1"
       position="2,12"
       id="guide4789" />
    <sodipodi:guide
       orientation="1,0"
       position="12,10"
       id="guide4791" />
    <sodipodi:guide
       orientation="0,1"
       position="7,0"
       id="guide4793" />
    <sodipodi:guide
       orientation="1,0"
       position="0,9"
       id="guide4795" />
    <sodipodi:guide
       orientation="0,1"
       position="5,11"
       id="guide4797" />
    <sodipodi:guide
       orientation="1,0"
       position="10.992188,9.4375"
       id="guide4799" />
    <sodipodi:guide
       orientation="0,1"
       position="9,2"
       id="guide4801" />
    <sodipodi:guide
       orientation="1,0"
       position="2,5"
       id="guide4803" />
  </sodipodi:namedview>
  <metadata
     id="metadata4769">
    <rdf:RDF>
      <cc:Work
         rdf:about="">
        <dc:format>image/svg+xml</dc:format>
        <dc:type
           rdf:resource="http://purl.org/dc/dcmitype/StillImage" />
        <dc:title></dc:title>
      </cc:Work>
    </rdf:RDF>
  </metadata>
  <g
     inkscape:label="Layer 1"
     inkscape:groupmode="layer"
     id="layer1"
     transform="translate(0,-1040.3622)">
    <g
       id="g3064">
      <rect
         y="1040.3622"
         x="0"
         height="12"
         width="12"
         id="rect3835"
         style="opacity:0.3;fill:none;stroke:none" />
      <g
         id="g3060"
         transform="translate(-25.5,14.5)">
        <path
           inkscape:connector-curvature="0"
           style="fill:#444444;fill-opacity:1;stroke:none"
           d="m 4,1045.3622 0,6 5,0 0,-6 z m 1,1 3,0 0,3 -3,0 z"
           id="rect3536"
           sodipodi:nodetypes="cccccccccc" />
      </g>
      <path
         style="color:#000000;fill:#444444;fill-opacity:1;fill-rule:nonzero;stroke:#444444;stroke-width:0;stroke-linecap:round;stroke-linejoin:miter;stroke-miterlimit:4;stroke-opacity:1;stroke-dasharray:none;stroke-dashoffset:0;marker:none;visibility:visible;display:inline;overflow:visible;enable-background:accumulate"
         d="m -21.5,1055.8622 0.65625,1 3.6875,0 0.65625,-1 -5,0 z m 1.34375,2 0.65625,1 1,0 0.65625,-1 -2.3125,0 z"
         id="path4578"
         inkscape:connector-curvature="0" />
      <rect
         style="fill:none;stroke:none"
         id="rect3870"
         width="24"
         height="24"
         x="-30"
         y="1030.3622"
         rx="0"
         ry="0" />
      <path
         style="fill:#444444;fill-opacity:1;stroke:none"
         clip-path="none"
         d="m -21,1038.3622 c -0.55401,0 -1,0.446 -1,1 l 0,12 c 0,0.554 0.44599,1 1,1 l 7,0 c 0.55401,0 1,-0.446 1,-1 l 0,-12 c 0,-0.554 -0.44599,-1 -1,-1 z m 1.5,2 4,0 c 0.277,0 0.5,0.223 0.5,0.5 l 0,8 c 0,0.277 -0.223,0.5 -0.5,0.5 l -4,0 c -0.277,0 -0.5,-0.223 -0.5,-0.5 l 0,-8 c 0,-0.277 0.223,-0.5 0.5,-0.5 z m 1.5,10 c 0.235702,-0.2357 0.764298,-0.2357 1,0 0.235702,0.2357 0.235702,0.7643 0,1 -0.235702,0.2357 -0.764298,0.2357 -1,0 -0.235702,-0.2357 -0.235702,-0.7643 0,-1 z"
         id="rect3536-5"
         inkscape:connector-curvature="0"
         sodipodi:nodetypes="sssssssssssssssssszzzzz" />
      <path
         style="font-size:medium;font-style:normal;font-variant:normal;font-weight:normal;font-stretch:normal;text-indent:0;text-align:start;text-decoration:none;line-height:normal;letter-spacing:normal;word-spacing:normal;text-transform:none;direction:ltr;block-progression:tb;writing-mode:lr-tb;text-anchor:start;baseline-shift:baseline;color:#000000;fill:#444444;fill-opacity:1;stroke:none;stroke-width:1;marker:none;visibility:visible;display:inline;overflow:visible;enable-background:accumulate;font-family:Sans;-inkscape-font-specification:Sans"
         d="m -17.5,1034.8622 c -1.125,0 -1.890183,0.4527 -2.34375,0.9063 -0.453567,0.4535 -0.625,0.9375 -0.625,0.9375 a 0.50005,0.50005 0 1 0 0.9375,0.3125 c 0,0 0.07857,-0.2661 0.375,-0.5625 0.296433,-0.2965 0.78125,-0.5938 1.65625,-0.5938 0.875,0 1.359817,0.2973 1.65625,0.5938 0.296433,0.2964 0.375,0.5625 0.375,0.5625 a 0.50005,0.50005 0 1 0 0.9375,-0.3125 c 0,0 -0.171433,-0.484 -0.625,-0.9375 -0.453567,-0.4536 -1.21875,-0.9063 -2.34375,-0.9063 z"
         id="path4782"
         inkscape:connector-curvature="0" />
      <path
         style="font-size:medium;font-style:normal;font-variant:normal;font-weight:normal;font-stretch:normal;text-indent:0;text-align:start;text-decoration:none;line-height:normal;letter-spacing:normal;word-spacing:normal;text-transform:none;direction:ltr;block-progression:tb;writing-mode:lr-tb;text-anchor:start;baseline-shift:baseline;color:#000000;fill:#444444;fill-opacity:1;stroke:none;stroke-width:1;marker:none;visibility:visible;display:inline;overflow:visible;enable-background:accumulate;font-family:Sans;-inkscape-font-specification:Sans"
         d="m -17.5,1031.875 c -1.842085,0 -3.002078,0.6886 -3.65625,1.4062 C -21.810422,1033.9989 -22,1034.75 -22,1034.75 a 0.51182845,0.51182845 0 1 0 1,0.2188 c 0,0 0.108438,-0.4989 0.59375,-1.0313 0.485312,-0.5324 1.306268,-1.0625 2.90625,-1.0625 1.630952,0 2.461239,0.5333 2.9375,1.0625 0.476261,0.5292 0.5625,1.0313 0.5625,1.0313 a 0.51182845,0.51182845 0 1 0 1,-0.2188 c 0,0 -0.163761,-0.7479 -0.8125,-1.4688 -0.648739,-0.7208 -1.818452,-1.4062 -3.6875,-1.4062 z"
         id="path4784"
         inkscape:connector-curvature="0" />
      <path
         sodipodi:nodetypes="cccccccccccc"
         inkscape:connector-curvature="0"
         id="path4875"
         d="m 4,1044.3622 0,5.5 0,0.5 4.5,0 0.5,0 0,-6 c -1.6666667,0 -3.3333333,0 -5,0 z m 4,1 0,4 -3,0 0,-4 z"
         clip-path="none"
         style="fill:#444444;fill-opacity:1;stroke:none" />
      <path
         style="color:#000000;fill:#444444;fill-opacity:1;fill-rule:nonzero;stroke:#444444;stroke-width:0;stroke-linecap:round;stroke-linejoin:miter;stroke-miterlimit:4;stroke-opacity:1;stroke-dashoffset:0;marker:none;visibility:visible;display:inline;overflow:visible;enable-background:accumulate"
         d="m 5,1043.3622 1.5,-0.5 1.5,0.5 0,0.5 -1.5,-0.5 -1.5,0.5 z"
         id="rect4881"
         inkscape:connector-curvature="0"
         sodipodi:nodetypes="ccccccc" />
      <path
         style="color:#000000;fill:#444444;fill-opacity:1;fill-rule:nonzero;stroke:#444444;stroke-width:0;stroke-linecap:round;stroke-linejoin:miter;stroke-miterlimit:4;stroke-opacity:1;stroke-dashoffset:0;marker:none;visibility:visible;display:inline;overflow:visible;enable-background:accumulate"
         d="m 4.5,1041.8622 2,-0.5 2,0.5 0,0.5 -2,-0.5 -2,0.5 z"
         id="rect4883"
         inkscape:connector-curvature="0"
         sodipodi:nodetypes="ccccccc" />
    </g>
  </g>
</svg>
