<?xml version="1.0" encoding="UTF-8" standalone="no"?>
<!-- Created with Inkscape (http://www.inkscape.org/) -->

<svg
   xmlns:dc="http://purl.org/dc/elements/1.1/"
   xmlns:cc="http://creativecommons.org/ns#"
   xmlns:rdf="http://www.w3.org/1999/02/22-rdf-syntax-ns#"
   xmlns:svg="http://www.w3.org/2000/svg"
   xmlns="http://www.w3.org/2000/svg"
   xmlns:sodipodi="http://sodipodi.sourceforge.net/DTD/sodipodi-0.dtd"
   xmlns:inkscape="http://www.inkscape.org/namespaces/inkscape"
   width="18"
   height="18"
   id="svg4619"
   version="1.1"
   inkscape:version="0.48.2 r9819"
   sodipodi:docname="mobile-phone-18.svg.2013_07_26_16_27_10.0.svg">
  <defs
     id="defs4621" />
  <sodipodi:namedview
     id="base"
     pagecolor="#ffffff"
     bordercolor="#666666"
     borderopacity="1.0"
     inkscape:pageopacity="0.0"
     inkscape:pageshadow="2"
     inkscape:zoom="16"
     inkscape:cx="8.3275241"
     inkscape:cy="9.8068494"
     inkscape:document-units="px"
     inkscape:current-layer="g3007"
     showgrid="true"
     showguides="true"
     inkscape:guide-bbox="true"
     inkscape:window-width="1920"
     inkscape:window-height="1032"
     inkscape:window-x="0"
     inkscape:window-y="22"
     inkscape:window-maximized="1">
    <inkscape:grid
       type="xygrid"
       id="grid4627"
       empspacing="5"
       visible="true"
       enabled="true"
       snapvisiblegridlinesonly="true"
       spacingx="0.5px"
       spacingy="0.5px" />
    <sodipodi:guide
       orientation="0,1"
       position="7,18"
       id="guide4659" />
    <sodipodi:guide
       orientation="1,0"
       position="18,9"
       id="guide4661" />
    <sodipodi:guide
       orientation="0,1"
       position="16,17"
       id="guide4663" />
    <sodipodi:guide
       orientation="1,0"
       position="17,14"
       id="guide4665" />
    <sodipodi:guide
       orientation="1,0"
       position="0,16"
       id="guide4667" />
    <sodipodi:guide
       orientation="0,1"
       position="8,0"
       id="guide4669" />
    <sodipodi:guide
       orientation="1,0"
       position="2,10"
       id="guide4671" />
    <sodipodi:guide
       orientation="0,1"
       position="12,2"
       id="guide4673" />
  </sodipodi:namedview>
  <metadata
     id="metadata4624">
    <rdf:RDF>
      <cc:Work
         rdf:about="">
        <dc:format>image/svg+xml</dc:format>
        <dc:type
           rdf:resource="http://purl.org/dc/dcmitype/StillImage" />
        <dc:title></dc:title>
      </cc:Work>
    </rdf:RDF>
  </metadata>
  <g
     inkscape:label="Layer 1"
     inkscape:groupmode="layer"
     id="layer1"
     transform="translate(0,-1034.3622)">
    <g
       id="g3824">
      <g
         id="g3015">
        <rect
           style="opacity:0.3;fill:none;stroke:none"
           id="rect3806"
           width="18"
           height="18"
           x="0"
           y="1034.3622" />
        <g
           id="g3007">
          <g
             id="g2999">
            <rect
               ry="2.7755572e-17"
               rx="2.7755576e-17"
               y="1034.3622"
               x="10"
               height="2.0000174"
               width="3"
               id="rect3024"
               style="opacity:0.3;fill:#ffffff;fill-opacity:1;stroke:none" />
            <rect
               ry="1.0000174"
               rx="1.0000174"
               y="1036.3622"
               x="5"
               height="16"
               width="9"
               id="rect3026"
               style="opacity:0.3;fill:#ffffff;fill-opacity:1;stroke:none" />
          </g>
          <g
             id="g3003">
            <path
               style="fill:#444444;fill-opacity:1;stroke:none"
               d="m 11,1035.8622 1,0 0,0 0,2 0,0 -1,0 0,0 0,-2 z"
               id="rect3536-4"
               inkscape:connector-curvature="0"
               sodipodi:nodetypes="ccccccccc" />
            <path
               id="rect3808"
               transform="translate(0,1034.3622)"
               d="M 6.5,3 C 6.223,3 6,3.223 6,3.5 l 0,13 C 6,16.777 6.223,17 6.5,17 l 6.5,0 c 0.277,0 0.5,-0.223 0.5,-0.5 l 0,-13 C 13.5,3.223 13.277,3 13,3 z m 1.5,1.5 3.5,0 C 12,4.5 12,5 12,5 l 0,6.5 c 0,0 0,0.5 -0.5,0.5 L 8,12 C 7.5,12 7.5,11.5 7.5,11.5 L 7.5,5 C 7.5,4.5 8,4.5 8,4.5 z m 0,8.5 1,0 0,1 -1,0 z m 2.5,0 1,0 0,1 -1,0 z m -2.5,2 1,0 0,1 -1,0 z m 2.5,0 1,0 0,1 -1,0 z"
               style="fill:#444444;fill-opacity:1;stroke:none"
               inkscape:connector-curvature="0"
               sodipodi:nodetypes="sssssssssccccccccccccccccccccccccccccc" />
          </g>
        </g>
      </g>
    </g>
  </g>
</svg>
