<?xml version="1.0" encoding="UTF-8" standalone="no"?>
<!-- Created with Inkscape (http://www.inkscape.org/) -->

<svg
   xmlns:dc="http://purl.org/dc/elements/1.1/"
   xmlns:cc="http://creativecommons.org/ns#"
   xmlns:rdf="http://www.w3.org/1999/02/22-rdf-syntax-ns#"
   xmlns:svg="http://www.w3.org/2000/svg"
   xmlns="http://www.w3.org/2000/svg"
   xmlns:sodipodi="http://sodipodi.sourceforge.net/DTD/sodipodi-0.dtd"
   xmlns:inkscape="http://www.inkscape.org/namespaces/inkscape"
   width="18"
   height="18"
   id="svg4619"
   version="1.1"
   inkscape:version="0.48.4 r9939"
   sodipodi:docname="mobilephone-18.svg">
  <defs
     id="defs4621" />
  <sodipodi:namedview
     id="base"
     pagecolor="#ffffff"
     bordercolor="#666666"
     borderopacity="1.0"
     inkscape:pageopacity="0.0"
     inkscape:pageshadow="2"
     inkscape:zoom="28.613988"
     inkscape:cx="7.735129"
     inkscape:cy="10.897987"
     inkscape:document-units="px"
     inkscape:current-layer="layer1"
     showgrid="true"
     showguides="false"
     inkscape:guide-bbox="true"
     inkscape:window-width="1440"
     inkscape:window-height="825"
     inkscape:window-x="1"
     inkscape:window-y="8"
     inkscape:window-maximized="0">
    <inkscape:grid
       type="xygrid"
       id="grid4627"
       empspacing="2"
       visible="true"
       enabled="true"
       snapvisiblegridlinesonly="true"
       spacingx="0.5px"
       spacingy="0.5px"
       color="#ff00ff"
       opacity="0.1254902" />
    <sodipodi:guide
       orientation="0,1"
       position="7,18"
       id="guide4659" />
    <sodipodi:guide
       orientation="1,0"
       position="18,9"
       id="guide4661" />
    <sodipodi:guide
       orientation="0,1"
       position="16,17"
       id="guide4663" />
    <sodipodi:guide
       orientation="1,0"
       position="17,14"
       id="guide4665" />
    <sodipodi:guide
       orientation="1,0"
       position="0,16"
       id="guide4667" />
    <sodipodi:guide
       orientation="0,1"
       position="8,0"
       id="guide4669" />
    <sodipodi:guide
       orientation="1,0"
       position="2,10"
       id="guide4671" />
    <sodipodi:guide
       orientation="0,1"
       position="12,2"
       id="guide4673" />
  </sodipodi:namedview>
  <metadata
     id="metadata4624">
    <rdf:RDF>
      <cc:Work
         rdf:about="">
        <dc:format>image/svg+xml</dc:format>
        <dc:type
           rdf:resource="http://purl.org/dc/dcmitype/StillImage" />
        <dc:title />
      </cc:Work>
    </rdf:RDF>
  </metadata>
  <g
     inkscape:label="Layer 1"
     inkscape:groupmode="layer"
     id="layer1"
     transform="translate(0,-1034.3622)">
    <path
       style="fill:#ffffff;fill-opacity:1;stroke:#ffffff;opacity:0.29999999999999999;color:#000000;fill-rule:nonzero;stroke-width:2;stroke-linecap:butt;stroke-linejoin:round;stroke-miterlimit:4;stroke-opacity:1;stroke-dasharray:none;stroke-dashoffset:0;marker:none;visibility:visible;display:inline;overflow:visible;enable-background:accumulate"
       d="M 6 1 L 6 3 C 5.499932 3 5 3.598 5 4 L 5 15 C 5 15.4019 5.499932 16 6 16 L 13 16 C 13.500067 16 14 15.4019 14 15 L 14 4 C 14 3.598 13.500067 3 13 3 L 8 3 L 8 1 L 6 1 z "
       transform="translate(0,1034.3622)"
       id="path8686" />
    <path
       style="fill:#444444;fill-opacity:1;stroke:none"
       d="M 6 3 C 5.499932 3 5 3.598 5 4 L 5 15 C 5 15.4019 5.499932 16 6 16 L 13 16 C 13.500067 16 14 15.4019 14 15 L 14 4 C 14 3.598 13.500067 3 13 3 L 6 3 z M 7 5 L 12 5 L 12 8 L 7 8 L 7 5 z M 7 9.03125 L 9 9.03125 L 9 11 L 7 11 L 7 9.03125 z M 10 9.03125 L 12 9.03125 L 12 11 L 10 11 L 10 9.03125 z M 7 12 L 9 12 L 9 14 L 7 14 L 7 12 z M 10 12 L 12 12 L 12 14 L 10 14 L 10 12 z "
       transform="translate(0,1034.3622)"
       id="rect6639" />
    <rect
       style="fill:#444444;fill-opacity:1;stroke:none"
       id="rect7921"
       width="2"
       height="3.0001395"
       x="6"
       y="1035.3621"
       ry="0.00013945313" />
  </g>
</svg>
